<svg width="251" height="46" viewBox="0 0 251 46" fill="none" xmlns="http://www.w3.org/2000/svg">
<path d="M54.2487 29.2093L49.453 20.9119V29.2093H47V17.2078H49.5328L54.2917 25.3703V17.2078H56.7447V29.2093H54.2487Z" fill="#0D5B2B"/>
<path d="M59.1793 29.2093V17.2078H64.527C65.5489 17.1436 66.5583 17.4604 67.3602 18.097C67.7037 18.3686 67.9814 18.7143 68.1725 19.1083C68.3637 19.5022 68.4633 19.9343 68.4641 20.3722C68.4773 20.8454 68.3469 21.3115 68.09 21.7091C67.7462 22.166 67.3146 22.5497 66.8206 22.8375C68.1391 23.6225 68.8014 24.5914 68.8014 25.7566C68.8121 26.249 68.7105 26.7374 68.5044 27.1848C68.2982 27.6321 67.9929 28.0266 67.6117 28.3384C66.7388 28.9727 65.6711 29.2809 64.5944 29.2093H59.1793ZM61.6324 19.2683V21.9851H64.3307C65.4775 21.9851 66.054 21.5313 66.054 20.6236C66.054 19.716 65.4775 19.2683 64.3307 19.2683H61.6324ZM61.6324 24.0456V27.1487H64.5822C65.8087 27.1487 66.4219 26.6336 66.4219 25.6033C66.4219 24.573 65.8087 24.0456 64.5822 24.0456H61.6324Z" fill="#0D5B2B"/>
<path d="M73.3272 17.2078V27.1487H79.0735V29.2093H70.8619V17.2078H73.3272Z" fill="#0D5B2B"/>
<path d="M92.3812 20.8199H90.0692C89.9895 19.5934 89.1555 18.9801 87.5549 18.9801C87.0224 18.952 86.4941 19.0868 86.0401 19.3664C85.8656 19.4784 85.7224 19.6327 85.6237 19.815C85.525 19.9973 85.4742 20.2017 85.4759 20.409C85.4648 20.5949 85.5026 20.7804 85.5854 20.9471C85.6683 21.1139 85.7933 21.2561 85.9481 21.3595C86.5205 21.6626 87.1445 21.856 87.7879 21.9299L89.6645 22.2856C90.5604 22.3972 91.4022 22.7754 92.0807 23.371C92.3445 23.667 92.547 24.0124 92.6765 24.3871C92.806 24.7618 92.8599 25.1585 92.835 25.5542C92.8641 26.1291 92.7431 26.7016 92.484 27.2155C92.2249 27.7295 91.8365 28.1672 91.3571 28.4856C90.3313 29.1288 89.1318 29.4394 87.9228 29.3748C86.2874 29.3748 85.0364 28.9946 84.1697 28.2342C83.7879 27.8847 83.4821 27.4605 83.2711 26.9879C83.0601 26.5152 82.9485 26.0043 82.9431 25.4868H85.341C85.433 26.7562 86.3283 27.394 88.0393 27.394C88.6611 27.4289 89.28 27.2864 89.8239 26.9831C90.0092 26.8684 90.1643 26.7109 90.2761 26.5239C90.3879 26.3368 90.4531 26.1256 90.4663 25.9081C90.4796 25.6905 90.4404 25.473 90.3521 25.2738C90.2637 25.0745 90.1289 24.8994 89.9588 24.7631C89.4237 24.4378 88.8261 24.2288 88.2049 24.1499L86.5307 23.831C85.5808 23.7242 84.6788 23.357 83.9244 22.77C83.6539 22.4939 83.4447 22.1639 83.3105 21.8014C83.1763 21.4389 83.1201 21.0522 83.1455 20.6666C83.114 20.12 83.2219 19.5745 83.4589 19.0811C83.696 18.5876 84.0545 18.1625 84.5008 17.8456C85.451 17.2422 86.5659 16.9506 87.6898 17.0115C89.3251 17.0115 90.5414 17.3795 91.3387 18.1154C91.6945 18.4664 91.9714 18.889 92.1512 19.3554C92.331 19.8217 92.4094 20.3209 92.3812 20.8199Z" fill="#0D5B2B"/>
<path d="M97.0911 24.0456V27.1487H103.598V29.2093H94.6319V17.2078H103.297V19.2683H97.0911V21.9851H102.843V24.0456H97.0911Z" fill="#0D5B2B"/>
<path d="M115.513 21.2124H113.171C113.087 20.6043 112.774 20.0509 112.297 19.6648C111.82 19.2787 111.213 19.0887 110.601 19.1334C110.13 19.1135 109.663 19.216 109.243 19.431C108.824 19.646 108.468 19.9661 108.209 20.3599C107.685 21.2377 107.433 22.2517 107.486 23.2729C107.408 24.3882 107.73 25.4949 108.393 26.3944C108.655 26.699 108.983 26.9401 109.351 27.0995C109.72 27.2588 110.12 27.3323 110.521 27.3143C111.19 27.3455 111.845 27.1269 112.361 26.701C112.844 26.2503 113.134 25.6309 113.171 24.9717H115.562C115.557 25.6231 115.404 26.2648 115.114 26.8481C114.823 27.4314 114.404 27.9411 113.888 28.3384C112.894 29.0645 111.684 29.432 110.454 29.381C109.662 29.4221 108.871 29.2732 108.147 28.9468C107.424 28.6204 106.789 28.1259 106.296 27.5044C105.397 26.2592 104.947 24.7457 105.02 23.2116C105.02 21.1674 105.581 19.5913 106.701 18.4834C107.2 17.9901 107.795 17.6049 108.449 17.3517C109.103 17.0985 109.802 16.9827 110.503 17.0115C111.301 16.9571 112.099 17.0959 112.832 17.4162C113.564 17.7365 114.209 18.2288 114.71 18.8513C115.209 19.5396 115.489 20.3625 115.513 21.2124Z" fill="#0D5B2B"/>
<path d="M124.485 17.2078H126.938V25.1801C126.975 25.7331 126.891 26.2874 126.693 26.805C126.495 27.3226 126.187 27.7913 125.792 28.179C124.764 28.9736 123.503 29.4048 122.204 29.4048C120.905 29.4048 119.643 28.9736 118.616 28.179C118.213 27.7922 117.898 27.3216 117.696 26.8003C117.494 26.279 117.408 25.7197 117.445 25.1617V17.1894H119.898V25.1617C119.898 26.5845 120.665 27.2898 122.198 27.2898C123.731 27.2898 124.479 26.5845 124.479 25.1617L124.485 17.2078Z" fill="#0D5B2B"/>
<path d="M131.875 24.4504V29.2093H129.422V17.2078H135.861C136.285 17.1778 136.711 17.2353 137.112 17.3767C137.513 17.5181 137.88 17.7403 138.192 18.0295C138.5 18.3561 138.739 18.7419 138.894 19.1636C139.049 19.5852 139.117 20.034 139.093 20.4826C139.131 21.1339 138.95 21.7791 138.581 22.3165C138.211 22.8539 137.673 23.253 137.051 23.4508C137.35 23.5296 137.63 23.6701 137.872 23.8634C138.114 24.0567 138.312 24.2984 138.455 24.573C138.657 25.638 138.748 26.7212 138.725 27.8049C138.714 27.9996 138.757 28.1937 138.849 28.3657C138.941 28.5377 139.078 28.6811 139.246 28.78V29.2338H136.597C136.316 28.5956 136.19 27.9001 136.229 27.2039C136.229 26.9831 136.229 26.7072 136.229 26.3821V25.8977C136.229 24.9471 135.72 24.4749 134.702 24.4749L131.875 24.4504ZM131.875 22.3837H134.862C135.318 22.4286 135.777 22.3231 136.168 22.0832C136.332 21.9169 136.458 21.7164 136.537 21.496C136.615 21.2755 136.644 21.0405 136.622 20.8076C136.644 20.5822 136.614 20.3546 136.536 20.1422C136.457 19.9297 136.331 19.7378 136.168 19.5811C135.78 19.3317 135.32 19.2194 134.862 19.2622H131.875V22.3837Z" fill="#0D5B2B"/>
<path d="M143.711 17.2078V29.2093H141.258V17.2078H143.711Z" fill="#0D5B2B"/>
<path d="M151.322 19.2683V29.2093H148.868V19.2683H145.189V17.2078H154.793V19.2683H151.322Z" fill="#0D5B2B"/>
<path d="M158.76 17.2078V29.2093H156.307V17.2078H158.76Z" fill="#0D5B2B"/>
<path d="M163.691 24.0456V27.1487H170.192V29.2093H161.226V17.2078H169.891V19.2683H163.691V21.9851H169.437V24.0456H163.691Z" fill="#0D5B2B"/>
<path d="M180.887 20.8199H178.575C178.495 19.5934 177.655 18.9801 176.06 18.9801C175.526 18.9523 174.996 19.087 174.54 19.3665C174.366 19.4791 174.224 19.6338 174.127 19.816C174.029 19.9983 173.979 20.2023 173.981 20.409C173.97 20.5943 174.007 20.7794 174.088 20.9461C174.17 21.1129 174.294 21.2553 174.448 21.3595C175.02 21.6615 175.644 21.8549 176.287 21.9299L178.164 22.2856C179.058 22.3984 179.897 22.7765 180.574 23.371C180.836 23.6712 181.035 24.0204 181.16 24.3984C181.286 24.7764 181.334 25.1756 181.304 25.5726C181.332 26.1467 181.212 26.7184 180.954 27.2321C180.696 27.7458 180.309 28.184 179.832 28.504C178.807 29.15 177.608 29.4648 176.398 29.4055C175.049 29.4977 173.714 29.0918 172.645 28.2648C172.263 27.9156 171.956 27.4914 171.745 27.0187C171.534 26.5461 171.423 26.035 171.418 25.5174H173.816C173.902 26.7889 174.801 27.4247 176.514 27.4247C177.136 27.4589 177.755 27.3164 178.299 27.0138C178.492 26.8972 178.651 26.7312 178.759 26.5329C178.866 26.3345 178.919 26.111 178.912 25.8854C178.922 25.6758 178.881 25.4669 178.792 25.2768C178.704 25.0866 178.57 24.9208 178.403 24.7938C177.868 24.4685 177.27 24.2595 176.649 24.1805L174.975 23.8616C174.025 23.7561 173.122 23.3888 172.369 22.8007C172.098 22.5246 171.889 22.1945 171.755 21.8321C171.621 21.4696 171.564 21.0829 171.59 20.6972C171.557 20.1506 171.664 19.6046 171.902 19.111C172.139 18.6173 172.498 18.1924 172.945 17.8762C173.893 17.2729 175.006 16.9813 176.128 17.0422C177.763 17.0422 178.99 17.4102 179.807 18.1461C180.165 18.4912 180.445 18.9076 180.631 19.3683C180.817 19.8289 180.904 20.3235 180.887 20.8199Z" fill="#0D5B2B"/>
<path d="M188.663 17.2078V27.1487H194.409V29.2093H186.21V17.2078H188.663Z" fill="#0D5B2B"/>
<path d="M198.389 17.2078V29.2093H195.936V17.2078H198.389Z" fill="#0D5B2B"/>
<path d="M203.314 19.8693V29.2093H200.861V17.2078H204.54L206.717 26.7624L208.815 17.2078H212.531V29.2093H210.078V19.8693L207.944 29.2093H205.491L203.314 19.8693Z" fill="#0D5B2B"/>
<path d="M217.486 17.2078V29.2093H215.033V17.2078H217.486Z" fill="#0D5B2B"/>
<path d="M225.072 19.2683V29.2093H222.619V19.2683H218.94V17.2078H228.543V19.2683H225.072Z" fill="#0D5B2B"/>
<path d="M232.511 24.0456V27.1487H239.018V29.2093H230.052V17.2078H238.717V19.2683H232.511V21.9851H238.263V24.0456H232.511Z" fill="#0D5B2B"/>
<path d="M240.98 29.2093V17.2078H245.696C247.45 17.2078 248.713 17.6677 249.486 18.5999C250.507 19.9113 251.025 21.5452 250.946 23.2055C251.029 24.8681 250.511 26.5051 249.486 27.8172C248.701 28.7452 247.438 29.2093 245.696 29.2093H240.98ZM243.433 27.1487H245.696C247.536 27.1487 248.48 25.8363 248.48 23.2055C248.48 20.5746 247.536 19.2683 245.696 19.2683H243.47L243.433 27.1487Z" fill="#0D5B2B"/>
<path d="M7.74808 44.8812L3.99615 39.7471V44.8812H2.32119V37.0101H4.0433L7.68853 41.9556V37.0101H9.36349V44.8812H7.74808Z" fill="#010101"/>
<path d="M10.9218 44.8812V37.0101H15.0633C16.5621 37.0101 17.3289 37.9654 17.3289 39.0151C17.3289 40.0052 16.716 40.6677 15.9716 40.8216C16.8103 40.9506 17.4827 41.7645 17.4827 42.7571C17.4827 43.9382 16.6912 44.8812 15.1924 44.8812H10.9218ZM15.6192 39.3104C15.6192 38.8141 15.2643 38.4493 14.6986 38.4493H12.5968V40.1615H14.6961C15.2643 40.1615 15.6192 39.8066 15.6192 39.3104ZM15.7706 42.5213C15.7706 42.025 15.4157 41.6007 14.7556 41.6007H12.5968V43.4295H14.7556C15.3934 43.4295 15.7706 43.0871 15.7706 42.5213Z" fill="#010101"/>
<path d="M18.7458 44.8812V37.0101H20.4208V43.4047H23.7484V44.8787H18.7458V44.8812Z" fill="#010101"/>
<path d="M24.3861 43.772L25.2943 42.4965C25.8501 43.0747 26.7112 43.5586 27.7956 43.5586C28.7162 43.5586 29.1653 43.1343 29.1653 42.6851C29.1653 41.2931 24.6342 42.2484 24.6342 39.2856C24.6342 37.9754 25.7682 36.891 27.6194 36.891C28.87 36.891 29.9098 37.2682 30.6864 37.9878L29.7534 39.2161C29.1157 38.6255 28.2671 38.355 27.4631 38.355C26.7435 38.355 26.3415 38.6727 26.3415 39.1466C26.3415 40.3973 30.8601 39.5585 30.8601 42.499C30.8601 43.9383 29.8328 45.0251 27.7087 45.0251C26.2025 45.0226 25.1156 44.5164 24.3861 43.772Z" fill="#016C45"/>
<path d="M31.9967 44.8812V37.0101H33.6716V43.4047H36.9992V44.8787H31.9967V44.8812Z" fill="#016C45"/>
<path d="M19.247 32.6328L24.8526 31.0769V28.2332L19.247 29.7866V32.6328Z" fill="#016C45"/>
<path d="M13.2469 31.0769L18.8525 32.6328V29.7866L13.2469 28.2332V31.0769Z" fill="#016C45"/>
<path d="M19.247 26.5855V29.4293L24.8526 27.8759V25.0322L19.247 26.5855Z" fill="#016C45"/>
<path d="M13.2469 27.8759L18.8525 29.4293V26.5855L13.2469 25.0322V27.8759Z" fill="#016C45"/>
<path d="M13.2469 24.6749L13.711 24.8014V23.1959L18.3885 24.4937V26.0992L18.8525 26.2282V22.7964L13.2469 21.243V24.6749Z" fill="#016C45"/>
<path d="M36.689 15.7542C36.6841 15.774 36.6816 15.7939 36.6766 15.8137C36.2498 17.7319 33.9619 18.5408 32.4259 17.315L19.6515 7.09644C18.922 6.51082 17.8847 6.51082 17.1502 7.09147L4.31625 17.2654C2.77528 18.4862 0.492365 17.6673 0.073003 15.7492C0.0680402 15.7293 0.0655589 15.712 0.0605961 15.6921C-0.152807 14.702 0.214445 13.6772 1.0085 13.0494L16.711 0.605005C17.2892 0.143459 18.0063 -0.0376859 18.6912 0.0442014C18.7334 0.0491643 18.7756 0.0566086 18.8178 0.0615715C19.2867 0.118644 19.7458 0.304752 20.1428 0.622375L35.756 13.1065C36.5426 13.7417 36.9049 14.7665 36.689 15.7542Z" fill="#035C30"/>
<path d="M32.411 20.5954C32.4036 20.6053 32.3937 20.6152 32.3862 20.6252C31.7287 21.3646 30.6046 21.4515 29.8328 20.8336L19.8575 12.8558C18.6192 11.759 17.788 12.1684 16.9319 12.8508L6.89447 20.8013C6.12026 21.4143 4.99865 21.3224 4.34603 20.5855C4.33859 20.5755 4.32866 20.5656 4.32122 20.5582C3.61153 19.7517 3.71079 18.5184 4.55199 17.8509L17.2048 7.82345C17.6118 7.49838 18.1155 7.37183 18.5994 7.4289C18.6292 7.43386 18.6565 7.43634 18.6862 7.44379C19.0187 7.48349 19.3389 7.61501 19.6193 7.83585L32.1902 17.8881C33.0264 18.5581 33.1232 19.7914 32.411 20.5954Z" fill="#13723E"/>
<path d="M27.3191 21.6476C27.3117 21.6525 27.3043 21.655 27.2943 21.66C26.8551 21.8982 26.3117 21.8436 25.9221 21.5309L19.4083 16.3224C18.8178 15.8509 17.979 15.8485 17.3885 16.3174L10.8275 21.5185C10.4355 21.8287 9.89452 21.8808 9.45531 21.6426C9.44787 21.6376 9.43794 21.6327 9.4305 21.6277C8.63644 21.1935 8.53222 20.0967 9.24191 19.5359L17.5994 12.9129C17.8723 12.6921 18.2123 12.6052 18.5349 12.6474C18.5547 12.6474 18.5746 12.6524 18.5944 12.6549C18.8178 12.6821 19.0336 12.769 19.2222 12.9204L27.5152 19.5532C28.2199 20.1215 28.1132 21.2158 27.3191 21.6476Z" fill="#218B4E"/>
</svg>
